<svg width="22" height="22" viewBox="0 0 22 22" fill="none" xmlns="http://www.w3.org/2000/svg">
<g id="fluent:meet-now-16-regular">
<path id="Vector" d="M6.556 4.01775L6.56975 4.0095L6.633 3.97237C6.68892 3.93846 6.77371 3.89125 6.88737 3.83075C7.11425 3.71113 7.44425 3.55025 7.85262 3.39075C8.67625 3.0635 9.79138 2.75 11 2.75C12.2086 2.75 13.3237 3.06625 14.1474 3.38937C14.5671 3.55488 14.9746 3.7497 15.367 3.97237C15.3954 3.98796 15.416 4.00033 15.4289 4.0095L15.4426 4.01775H15.444C15.5978 4.11134 15.7822 4.14086 15.9576 4.09995C16.1329 4.05905 16.2852 3.95099 16.3817 3.799C16.4782 3.64701 16.5113 3.46321 16.4738 3.28712C16.4362 3.11102 16.3311 2.95667 16.181 2.85725L16.1769 2.8545L16.17 2.85037L16.1452 2.83525L16.0614 2.78438C15.6081 2.52668 15.1372 2.30152 14.652 2.11062C13.728 1.74625 12.4369 1.375 11 1.375C9.56313 1.375 8.27062 1.74625 7.34937 2.11062C6.86374 2.30146 6.3923 2.52662 5.93862 2.78438L5.85475 2.83525L5.83 2.849L5.82313 2.8545L5.82037 2.85587C5.6663 2.95342 5.55729 3.10819 5.51732 3.28611C5.47735 3.46404 5.5097 3.65055 5.60725 3.80463C5.7048 3.9587 5.85956 4.06771 6.03749 4.10768C6.21541 4.14765 6.40193 4.1153 6.556 4.01775ZM5.5 5.5C4.77065 5.5 4.07118 5.78973 3.55546 6.30546C3.03973 6.82118 2.75 7.52065 2.75 8.25V13.75C2.75 14.4793 3.03973 15.1788 3.55546 15.6945C4.07118 16.2103 4.77065 16.5 5.5 16.5H11.6875C12.4168 16.5 13.1163 16.2103 13.632 15.6945C14.1478 15.1788 14.4375 14.4793 14.4375 13.75V13.5603L18.2215 15.7218C18.326 15.7815 18.4444 15.8127 18.5648 15.8123C18.6852 15.8119 18.8034 15.7799 18.9075 15.7194C19.0117 15.659 19.0981 15.5723 19.1582 15.468C19.2183 15.3637 19.25 15.2454 19.25 15.125V6.875C19.25 6.75461 19.2183 6.63633 19.1582 6.53201C19.0981 6.4277 19.0117 6.34099 18.9075 6.28057C18.8034 6.22015 18.6852 6.18813 18.5648 6.18773C18.4444 6.18732 18.326 6.21853 18.2215 6.27825L14.4375 8.43975V8.25C14.4375 7.52065 14.1478 6.82118 13.632 6.30546C13.1163 5.78973 12.4168 5.5 11.6875 5.5H5.5ZM14.4375 10.0238L17.875 8.06025V13.9397L14.4375 11.9762V10.0238ZM4.125 8.25C4.125 7.88533 4.26987 7.53559 4.52773 7.27773C4.78559 7.01987 5.13533 6.875 5.5 6.875H11.6875C12.0522 6.875 12.4019 7.01987 12.6598 7.27773C12.9176 7.53559 13.0625 7.88533 13.0625 8.25V13.75C13.0625 14.1147 12.9176 14.4644 12.6598 14.7223C12.4019 14.9801 12.0522 15.125 11.6875 15.125H5.5C5.13533 15.125 4.78559 14.9801 4.52773 14.7223C4.26987 14.4644 4.125 14.1147 4.125 13.75V8.25ZM6.55737 17.9836L6.556 17.9823C6.40218 17.8887 6.21779 17.8591 6.04245 17.9C5.8671 17.941 5.7148 18.049 5.61828 18.201C5.52175 18.353 5.4887 18.5368 5.52624 18.7129C5.56377 18.889 5.66889 19.0433 5.819 19.1427L5.82313 19.1455L5.83 19.1496L5.85475 19.1647C5.874 19.1776 5.90196 19.1945 5.93862 19.2156C6.01196 19.2578 6.11463 19.3146 6.24663 19.3861C6.50925 19.5236 6.886 19.7065 7.34937 19.8894C8.27062 20.2524 9.56313 20.625 11 20.625C12.4382 20.625 13.7294 20.2537 14.6506 19.8894C15.1363 19.6985 15.6077 19.4734 16.0614 19.2156L16.1452 19.1647L16.17 19.151L16.1769 19.1455L16.1796 19.1441C16.3337 19.0464 16.444 18.8915 16.4839 18.7134C16.5237 18.5353 16.4912 18.3488 16.3934 18.1947C16.2957 18.0406 16.1408 17.9317 15.9627 17.8918C15.7847 17.852 15.5981 17.8845 15.444 17.9823L15.4303 17.9919L15.367 18.0276C15.3111 18.0615 15.2263 18.1087 15.1126 18.1693C14.7992 18.3335 14.477 18.4804 14.1474 18.6093C13.3237 18.9365 12.2086 19.25 11 19.25C9.79138 19.25 8.67625 18.9338 7.85262 18.6106C7.43292 18.4451 7.02538 18.2503 6.633 18.0276L6.57112 17.9905L6.55737 17.9836Z" fill="#626262"/>
</g>
</svg>
