<svg width="21" height="20" viewBox="0 0 21 20" fill="none" xmlns="http://www.w3.org/2000/svg">
<g id="Icons/EyeSlash">
<path id="Vector" d="M4.71249 2.70437C4.65761 2.6425 4.59099 2.59214 4.51649 2.55621C4.442 2.52028 4.36111 2.49949 4.27853 2.49504C4.19594 2.4906 4.11329 2.50259 4.03537 2.53033C3.95746 2.55806 3.88582 2.60098 3.82461 2.65661C3.7634 2.71223 3.71384 2.77945 3.67881 2.85437C3.64377 2.92929 3.62395 3.01042 3.6205 3.09305C3.61704 3.17569 3.63003 3.25818 3.65869 3.33576C3.68736 3.41334 3.73114 3.48446 3.78749 3.545L5.29062 5.19891C2.45312 6.94031 1.23281 9.62469 1.1789 9.74656C1.14336 9.82649 1.125 9.91299 1.125 10.0005C1.125 10.0879 1.14336 10.1744 1.1789 10.2544C1.20624 10.3161 1.86796 11.7833 3.33905 13.2544C5.29921 15.2137 7.77499 16.2497 10.5 16.2497C11.9005 16.2577 13.2868 15.9693 14.568 15.4036L16.2867 17.295C16.3416 17.3569 16.4082 17.4072 16.4827 17.4432C16.5572 17.4791 16.6381 17.4999 16.7207 17.5043C16.8033 17.5088 16.8859 17.4968 16.9638 17.469C17.0417 17.4413 17.1134 17.3984 17.1746 17.3428C17.2358 17.2871 17.2854 17.2199 17.3204 17.145C17.3554 17.0701 17.3753 16.989 17.3787 16.9063C17.3822 16.8237 17.3692 16.7412 17.3405 16.6636C17.3118 16.586 17.2681 16.5149 17.2117 16.4544L4.71249 2.70437ZM8.41015 8.62937L11.6656 12.2114C11.1754 12.4693 10.6134 12.5571 10.0678 12.461C9.52229 12.3648 9.02413 12.0903 8.65157 11.6803C8.27901 11.2704 8.05314 10.7483 8.00945 10.1961C7.96575 9.64389 8.1067 9.0928 8.41015 8.62937ZM10.5 14.9997C8.0953 14.9997 5.99452 14.1255 4.25546 12.402C3.54164 11.6926 2.93454 10.8834 2.45312 9.99969C2.81952 9.31297 3.98905 7.39109 6.15234 6.14187L7.55859 7.68484C7.01416 8.38211 6.73377 9.2494 6.76697 10.1334C6.80017 11.0174 7.14483 11.8612 7.74002 12.5157C8.33521 13.1702 9.14261 13.5932 10.0195 13.7099C10.8964 13.8266 11.7864 13.6296 12.532 13.1536L13.6828 14.4192C12.6672 14.8089 11.5878 15.0057 10.5 14.9997ZM10.9687 7.54422C10.8059 7.51314 10.662 7.41863 10.5689 7.2815C10.4757 7.14436 10.4408 6.97583 10.4719 6.81297C10.5029 6.65011 10.5975 6.50627 10.7346 6.41308C10.8717 6.3199 11.0403 6.28501 11.2031 6.31609C11.9997 6.47052 12.725 6.87832 13.2708 7.47866C13.8167 8.079 14.1539 8.83972 14.232 9.64734C14.2475 9.81238 14.1967 9.97678 14.0909 10.1044C13.9851 10.232 13.833 10.3124 13.668 10.3278C13.6484 10.329 13.6289 10.329 13.6094 10.3278C13.4532 10.3285 13.3024 10.2706 13.1867 10.1656C13.071 10.0607 12.9988 9.91617 12.9844 9.76062C12.9318 9.22343 12.7072 8.71756 12.344 8.31824C11.9809 7.91891 11.4985 7.64745 10.9687 7.54422ZM19.8187 10.2544C19.7859 10.3278 18.9945 12.0802 17.2125 13.6762C17.1516 13.7325 17.0801 13.7761 17.0022 13.8045C16.9243 13.8329 16.8415 13.8455 16.7587 13.8416C16.6759 13.8376 16.5947 13.8173 16.5198 13.7817C16.4449 13.746 16.3779 13.6959 16.3226 13.6341C16.2673 13.5723 16.2249 13.5002 16.1977 13.4218C16.1706 13.3435 16.1593 13.2605 16.1645 13.1778C16.1698 13.095 16.1914 13.0141 16.2282 12.9398C16.265 12.8655 16.3162 12.7993 16.3789 12.745C17.2532 11.9595 17.9876 11.0312 18.5508 9.99969C18.0683 9.11514 17.4599 8.30538 16.7445 7.59578C15.0055 5.87391 12.9047 4.99969 10.5 4.99969C9.99332 4.99907 9.48745 5.04009 8.98749 5.12234C8.90619 5.13672 8.82284 5.13485 8.74227 5.11683C8.6617 5.09881 8.58549 5.06501 8.51805 5.01738C8.45062 4.96974 8.39329 4.90922 8.34938 4.8393C8.30547 4.76938 8.27584 4.69145 8.26222 4.61002C8.2486 4.52859 8.25124 4.44527 8.27 4.36486C8.28877 4.28446 8.32327 4.20857 8.37153 4.14158C8.41979 4.07459 8.48085 4.01782 8.55117 3.97456C8.62149 3.9313 8.69969 3.9024 8.78124 3.88953C9.34934 3.79573 9.9242 3.74896 10.5 3.74969C13.225 3.74969 15.7008 4.78562 17.6609 6.74578C19.132 8.21687 19.7937 9.68484 19.8211 9.74656C19.8566 9.82649 19.875 9.91299 19.875 10.0005C19.875 10.0879 19.8566 10.1744 19.8211 10.2544H19.8187Z" fill="#767676"/>
</g>
</svg>
