<svg width="25" height="24" viewBox="0 0 25 24" fill="none" xmlns="http://www.w3.org/2000/svg">
<g id="Icons/Lock">
<path id="Vector" d="M20 7.5H17V5.25C17 4.05653 16.5259 2.91193 15.682 2.06802C14.8381 1.22411 13.6935 0.75 12.5 0.75C11.3065 0.75 10.1619 1.22411 9.31802 2.06802C8.47411 2.91193 8 4.05653 8 5.25V7.5H5C4.60218 7.5 4.22064 7.65804 3.93934 7.93934C3.65804 8.22064 3.5 8.60218 3.5 9V19.5C3.5 19.8978 3.65804 20.2794 3.93934 20.5607C4.22064 20.842 4.60218 21 5 21H20C20.3978 21 20.7794 20.842 21.0607 20.5607C21.342 20.2794 21.5 19.8978 21.5 19.5V9C21.5 8.60218 21.342 8.22064 21.0607 7.93934C20.7794 7.65804 20.3978 7.5 20 7.5ZM9.5 5.25C9.5 4.45435 9.81607 3.69129 10.3787 3.12868C10.9413 2.56607 11.7044 2.25 12.5 2.25C13.2956 2.25 14.0587 2.56607 14.6213 3.12868C15.1839 3.69129 15.5 4.45435 15.5 5.25V7.5H9.5V5.25ZM20 19.5H5V9H20V19.5ZM13.625 14.25C13.625 14.4725 13.559 14.69 13.4354 14.875C13.3118 15.06 13.1361 15.2042 12.9305 15.2894C12.725 15.3745 12.4988 15.3968 12.2805 15.3534C12.0623 15.31 11.8618 15.2028 11.7045 15.0455C11.5472 14.8882 11.44 14.6877 11.3966 14.4695C11.3532 14.2512 11.3755 14.025 11.4606 13.8195C11.5458 13.6139 11.69 13.4382 11.875 13.3146C12.06 13.191 12.2775 13.125 12.5 13.125C12.7984 13.125 13.0845 13.2435 13.2955 13.4545C13.5065 13.6655 13.625 13.9516 13.625 14.25Z" fill="#767676"/>
</g>
</svg>
