<svg width="32" height="32" viewBox="0 0 32 32" fill="none" xmlns="http://www.w3.org/2000/svg">
<path d="M5.96721 13.273L5.32738 12.6331L5.12618 13.5153C4.94594 14.3056 4.83366 15.1432 4.83366 15.9998C4.83366 21.6829 9.10545 26.3713 14.5906 27.0692L15.1537 27.1408V26.5732V23.9998V23.4998H14.6537C13.4631 23.4998 12.487 22.5237 12.487 21.3332V19.9998V19.7927L12.3405 19.6463L5.96721 13.273ZM23.3776 23.3527L23.6408 24.1728L24.2225 23.5375C26.0354 21.5572 27.167 18.9051 27.167 15.9998C27.167 11.3217 24.2627 7.30276 20.1738 5.65604L19.487 5.37945V6.11984V6.6665C19.487 7.85703 18.5108 8.83317 17.3203 8.83317H14.6537H14.1537V9.33317V11.9998C14.1537 12.457 13.7775 12.8332 13.3203 12.8332H10.6537H10.1537V13.3332V15.9998V16.4998H10.6537H18.6537C19.1108 16.4998 19.487 16.876 19.487 17.3332V21.3332V21.8332H19.987H21.3203C22.2901 21.8332 23.0933 22.467 23.3776 23.3527ZM3.16699 15.9998C3.16699 8.91598 8.91647 3.1665 16.0003 3.1665C23.0842 3.1665 28.8337 8.91598 28.8337 15.9998C28.8337 23.0837 23.0842 28.8332 16.0003 28.8332C8.91647 28.8332 3.16699 23.0837 3.16699 15.9998Z" fill="white" stroke="white"/>
</svg>
