<svg width="17" height="18" viewBox="0 0 17 18" fill="none" xmlns="http://www.w3.org/2000/svg">
<path id="Vector" d="M8.5 0.5C6.22133 0.5 4.15381 1.40723 2.62581 2.87264C2.52063 2.93377 2.43296 3.02096 2.37126 3.12581C0.906225 4.65374 0 6.72167 0 9C0 13.686 3.81397 17.5 8.5 17.5C10.7738 17.5 12.8375 16.5969 14.3645 15.137C14.4781 15.0733 14.5719 14.9795 14.6357 14.8659C16.0963 13.3387 17 11.2745 17 9C17 4.31397 13.186 0.5 8.5 0.5ZM8.5 1.91667C12.4204 1.91667 15.5833 5.07959 15.5833 9C15.5833 10.7045 14.9849 12.2648 13.9868 13.4852L4.01481 3.51318C5.23525 2.51509 6.79549 1.91667 8.5 1.91667ZM3.01318 4.51481L12.9852 14.4868C11.7648 15.4849 10.2045 16.0833 8.5 16.0833C4.57959 16.0833 1.41667 12.9204 1.41667 9C1.41667 7.29549 2.01509 5.73525 3.01318 4.51481Z" fill="white"/>
</svg>
