<svg width="22" height="22" viewBox="0 0 22 22" fill="none" xmlns="http://www.w3.org/2000/svg">
<g id="material-symbols:dashboard-outline">
<path id="Vector" d="M18.5686 9.95923C18.5683 9.95886 18.5679 9.9585 18.5675 9.95813L12.0408 3.43164C11.7626 3.15332 11.3927 3 10.9993 3C10.6059 3 10.236 3.1532 9.95766 3.43152L3.43434 9.95471C3.43215 9.95691 3.42995 9.95923 3.42775 9.96143C2.85646 10.536 2.85744 11.4683 3.43056 12.0414C3.6924 12.3033 4.03822 12.4551 4.40798 12.4709C4.42299 12.4724 4.43813 12.4731 4.45339 12.4731H4.71352V17.2762C4.71352 18.2267 5.48683 19 6.43752 19H8.99098C9.24977 19 9.45973 18.7902 9.45973 18.5312V14.7656C9.45973 14.3319 9.81252 13.9791 10.2462 13.9791H11.7523C12.1861 13.9791 12.5388 14.3319 12.5388 14.7656V18.5312C12.5388 18.7902 12.7487 19 13.0076 19H15.5611C16.5117 19 17.2851 18.2267 17.2851 17.2762V12.4731H17.5263C17.9196 12.4731 18.2894 12.3199 18.5679 12.0416C19.1416 11.4675 19.1419 10.5337 18.5686 9.95923Z" fill="#0E4E5D"/>
</g>
</svg>
